#tb 0: 1/100
#media_type 0: video
#codec_id 0: rawvideo
#dimensions 0: 480x360
#sar 0: 0/1
0,          0,          0,        5,   691200, 0xef6c0f3d
0,          5,          5,        2,   691200, 0xc18b32de
0,          7,          7,        2,   691200, 0x2395a3d7
0,          9,          9,        2,   691200, 0x81dc3cf2
0,         11,         11,        2,   691200, 0xabe2390e
0,         13,         13,        2,   691200, 0xb2955c2a
0,         15,         15,        2,   691200, 0x868d9ca2
0,         17,         17,        2,   691200, 0x3016c2b6
0,         19,         19,        2,   691200, 0x4501cffa
0,         21,         21,        4,   691200, 0x8661d79e
0,         25,         25,        2,   691200, 0xbc96d02e
0,         27,         27,        2,   691200, 0x5f90bf5e
0,         29,         29,        2,   691200, 0xf18da09a
0,         31,         31,        2,   691200, 0x540467ce
0,         33,         33,        2,   691200, 0x60d24012
0,         35,         35,        2,   691200, 0x24323d36
0,         37,         37,        2,   691200, 0x9e07c84b
0,         39,         39,        2,   691200, 0xc18b32de
0,         41,         41,        5,   691200, 0xef6c0f3d
0,         46,         46,        2,   691200, 0xc9461045
0,         48,         48,        2,   691200, 0x23ed4b99
0,         50,         50,        2,   691200, 0x7e351d69
0,         52,         52,        2,   691200, 0x0513e0aa
0,         54,         54,        2,   691200, 0x28a4b6f2
0,         56,         56,        2,   691200, 0xce10a94e
0,         58,         58,        2,   691200, 0x63929d4e
0,         60,         60,        2,   691200, 0xd26c9bb6
0,         62,         62,        4,   691200, 0xb2a29842
0,         66,         66,        2,   691200, 0x9fd69a16
0,         68,         68,        2,   691200, 0x10f99e46
0,         70,         70,        2,   691200, 0xea95a9fa
0,         72,         72,        2,   691200, 0x97dbb9d6
0,         74,         74,        2,   691200, 0xf4e9e2d6
0,         76,         76,        2,   691200, 0x46b1230d
0,         78,         78,        2,   691200, 0xb4a54ccd
0,         80,         80,        2,   691200, 0x40cc103d
